<mxfile host="app.diagrams.net" modified="2021-10-27T09:57:18.859Z" agent="5.0 (Windows NT 10.0; Win64; x64) AppleWebKit/537.36 (KHTML, like Gecko) Chrome/89.0.4389.114 Safari/537.36" etag="8hyD2P9Nbts3pY7DfOvc" version="15.4.1" type="github">
  <diagram id="fKVUNWtOd1Q6Zy9pXweU" name="Page-1">
    <mxGraphModel dx="1422" dy="762" grid="1" gridSize="10" guides="1" tooltips="1" connect="1" arrows="1" fold="1" page="1" pageScale="1" pageWidth="850" pageHeight="1100" math="0" shadow="0">
      <root>
        <mxCell id="0" />
        <mxCell id="1" parent="0" />
        <mxCell id="9m2IHYcQ7WaVDAypF8id-26" value="" style="rounded=0;whiteSpace=wrap;html=1;" vertex="1" parent="1">
          <mxGeometry x="702" y="79" width="120" height="171" as="geometry" />
        </mxCell>
        <mxCell id="9m2IHYcQ7WaVDAypF8id-22" value="" style="rounded=0;whiteSpace=wrap;html=1;" vertex="1" parent="1">
          <mxGeometry x="600" y="277" width="120" height="233" as="geometry" />
        </mxCell>
        <mxCell id="9m2IHYcQ7WaVDAypF8id-1" value="" style="whiteSpace=wrap;html=1;aspect=fixed;" vertex="1" parent="1">
          <mxGeometry x="335" y="130" width="244" height="244" as="geometry" />
        </mxCell>
        <mxCell id="e1f4IQgHXaq9rCnp3Oos-1" value="CosmosDB" style="aspect=fixed;html=1;points=[];align=center;image;fontSize=12;image=img/lib/azure2/databases/Azure_Cosmos_DB.svg;" parent="1" vertex="1">
          <mxGeometry x="415" y="156" width="64" height="64" as="geometry" />
        </mxCell>
        <mxCell id="9m2IHYcQ7WaVDAypF8id-15" style="edgeStyle=orthogonalEdgeStyle;rounded=0;orthogonalLoop=1;jettySize=auto;html=1;" edge="1" parent="1" target="e1f4IQgHXaq9rCnp3Oos-8">
          <mxGeometry relative="1" as="geometry">
            <mxPoint x="762.0588235294117" y="218" as="sourcePoint" />
            <Array as="points">
              <mxPoint x="762" y="316" />
            </Array>
          </mxGeometry>
        </mxCell>
        <mxCell id="e1f4IQgHXaq9rCnp3Oos-7" value="Blob&lt;br&gt;" style="sketch=0;aspect=fixed;html=1;points=[];align=center;image;fontSize=12;image=img/lib/mscae/BlobBlock.svg;" parent="1" vertex="1">
          <mxGeometry x="422" y="295" width="50" height="42" as="geometry" />
        </mxCell>
        <mxCell id="e1f4IQgHXaq9rCnp3Oos-8" value="Storage Queue" style="aspect=fixed;html=1;points=[];align=center;image;fontSize=12;image=img/lib/azure2/general/Storage_Queue.svg;" parent="1" vertex="1">
          <mxGeometry x="628" y="290" width="64" height="52" as="geometry" />
        </mxCell>
        <mxCell id="e1f4IQgHXaq9rCnp3Oos-11" style="edgeStyle=orthogonalEdgeStyle;rounded=0;orthogonalLoop=1;jettySize=auto;html=1;entryX=-0.015;entryY=0.583;entryDx=0;entryDy=0;entryPerimeter=0;" parent="1" source="e1f4IQgHXaq9rCnp3Oos-9" target="e1f4IQgHXaq9rCnp3Oos-10" edge="1">
          <mxGeometry relative="1" as="geometry" />
        </mxCell>
        <mxCell id="e1f4IQgHXaq9rCnp3Oos-12" value="1" style="edgeLabel;html=1;align=center;verticalAlign=middle;resizable=0;points=[];" parent="e1f4IQgHXaq9rCnp3Oos-11" vertex="1" connectable="0">
          <mxGeometry x="-0.1555" y="-2" relative="1" as="geometry">
            <mxPoint x="-12" as="offset" />
          </mxGeometry>
        </mxCell>
        <mxCell id="e1f4IQgHXaq9rCnp3Oos-14" style="edgeStyle=orthogonalEdgeStyle;rounded=0;orthogonalLoop=1;jettySize=auto;html=1;" parent="1" source="e1f4IQgHXaq9rCnp3Oos-9" target="e1f4IQgHXaq9rCnp3Oos-13" edge="1">
          <mxGeometry relative="1" as="geometry" />
        </mxCell>
        <mxCell id="e1f4IQgHXaq9rCnp3Oos-15" value="2" style="edgeLabel;html=1;align=center;verticalAlign=middle;resizable=0;points=[];" parent="e1f4IQgHXaq9rCnp3Oos-14" vertex="1" connectable="0">
          <mxGeometry x="0.1333" y="-1" relative="1" as="geometry">
            <mxPoint x="-9" y="3" as="offset" />
          </mxGeometry>
        </mxCell>
        <mxCell id="e1f4IQgHXaq9rCnp3Oos-9" value="Gerda" style="shape=umlActor;verticalLabelPosition=bottom;verticalAlign=top;html=1;" parent="1" vertex="1">
          <mxGeometry x="20" y="216" width="30" height="60" as="geometry" />
        </mxCell>
        <mxCell id="e1f4IQgHXaq9rCnp3Oos-22" style="edgeStyle=orthogonalEdgeStyle;rounded=0;orthogonalLoop=1;jettySize=auto;html=1;" parent="1" source="e1f4IQgHXaq9rCnp3Oos-10" edge="1" target="e1f4IQgHXaq9rCnp3Oos-1">
          <mxGeometry relative="1" as="geometry">
            <mxPoint x="265" y="190" as="targetPoint" />
            <Array as="points">
              <mxPoint x="245" y="190" />
              <mxPoint x="245" y="190" />
            </Array>
          </mxGeometry>
        </mxCell>
        <mxCell id="e1f4IQgHXaq9rCnp3Oos-10" value="GetHouses" style="aspect=fixed;html=1;points=[];align=center;image;fontSize=12;image=img/lib/azure2/compute/Function_Apps.svg;" parent="1" vertex="1">
          <mxGeometry x="170" y="150" width="68" height="60" as="geometry" />
        </mxCell>
        <mxCell id="9m2IHYcQ7WaVDAypF8id-20" style="edgeStyle=orthogonalEdgeStyle;rounded=0;orthogonalLoop=1;jettySize=auto;html=1;" edge="1" parent="1" source="e1f4IQgHXaq9rCnp3Oos-13" target="e1f4IQgHXaq9rCnp3Oos-1">
          <mxGeometry relative="1" as="geometry">
            <Array as="points">
              <mxPoint x="447" y="280" />
            </Array>
          </mxGeometry>
        </mxCell>
        <mxCell id="e1f4IQgHXaq9rCnp3Oos-13" value="EnterInfo /&amp;nbsp;&lt;br&gt;CalculateLoan" style="aspect=fixed;html=1;points=[];align=center;image;fontSize=12;image=img/lib/azure2/compute/Function_Apps.svg;" parent="1" vertex="1">
          <mxGeometry x="170" y="276" width="68" height="60" as="geometry" />
        </mxCell>
        <mxCell id="9m2IHYcQ7WaVDAypF8id-25" style="edgeStyle=orthogonalEdgeStyle;rounded=0;orthogonalLoop=1;jettySize=auto;html=1;entryX=1.063;entryY=0.531;entryDx=0;entryDy=0;entryPerimeter=0;startArrow=none;startFill=0;" edge="1" parent="1" source="9m2IHYcQ7WaVDAypF8id-3" target="e1f4IQgHXaq9rCnp3Oos-1">
          <mxGeometry relative="1" as="geometry" />
        </mxCell>
        <mxCell id="9m2IHYcQ7WaVDAypF8id-3" value="" style="shape=collate;whiteSpace=wrap;html=1;" vertex="1" parent="1">
          <mxGeometry x="742" y="170" width="40" height="40" as="geometry" />
        </mxCell>
        <mxCell id="9m2IHYcQ7WaVDAypF8id-4" value="GeneratePDF" style="text;html=1;align=center;verticalAlign=middle;resizable=0;points=[];autosize=1;strokeColor=none;fillColor=none;" vertex="1" parent="1">
          <mxGeometry x="717" y="219" width="90" height="20" as="geometry" />
        </mxCell>
        <mxCell id="9m2IHYcQ7WaVDAypF8id-27" style="edgeStyle=orthogonalEdgeStyle;rounded=0;orthogonalLoop=1;jettySize=auto;html=1;entryX=0.5;entryY=0;entryDx=0;entryDy=0;entryPerimeter=0;startArrow=none;startFill=0;" edge="1" parent="1" source="9m2IHYcQ7WaVDAypF8id-17" target="e1f4IQgHXaq9rCnp3Oos-9">
          <mxGeometry relative="1" as="geometry" />
        </mxCell>
        <mxCell id="9m2IHYcQ7WaVDAypF8id-17" value="" style="shape=collate;whiteSpace=wrap;html=1;" vertex="1" parent="1">
          <mxGeometry x="742" y="90" width="40" height="40" as="geometry" />
        </mxCell>
        <mxCell id="9m2IHYcQ7WaVDAypF8id-18" value="SendMail" style="text;html=1;align=center;verticalAlign=middle;resizable=0;points=[];autosize=1;strokeColor=none;fillColor=none;" vertex="1" parent="1">
          <mxGeometry x="727" y="139" width="70" height="20" as="geometry" />
        </mxCell>
        <mxCell id="9m2IHYcQ7WaVDAypF8id-23" style="edgeStyle=orthogonalEdgeStyle;rounded=0;orthogonalLoop=1;jettySize=auto;html=1;" edge="1" parent="1" source="9m2IHYcQ7WaVDAypF8id-21" target="e1f4IQgHXaq9rCnp3Oos-7">
          <mxGeometry relative="1" as="geometry" />
        </mxCell>
        <mxCell id="9m2IHYcQ7WaVDAypF8id-24" style="edgeStyle=orthogonalEdgeStyle;rounded=0;orthogonalLoop=1;jettySize=auto;html=1;entryX=0.468;entryY=1.061;entryDx=0;entryDy=0;entryPerimeter=0;startArrow=classicThin;startFill=1;" edge="1" parent="1" source="9m2IHYcQ7WaVDAypF8id-21" target="e1f4IQgHXaq9rCnp3Oos-8">
          <mxGeometry relative="1" as="geometry" />
        </mxCell>
        <mxCell id="9m2IHYcQ7WaVDAypF8id-21" value="Queue Listener" style="aspect=fixed;perimeter=ellipsePerimeter;html=1;align=center;shadow=0;dashed=0;fontColor=#4277BB;labelBackgroundColor=#ffffff;fontSize=12;spacingTop=3;image;image=img/lib/ibm/blockchain/event_listener.svg;" vertex="1" parent="1">
          <mxGeometry x="628" y="410" width="60" height="60" as="geometry" />
        </mxCell>
        <mxCell id="9m2IHYcQ7WaVDAypF8id-28" value="De code bestaat uit vier cijfers en twee letters. De eerste 2 cijfers geven de regio aan, de laatste 2 cijfers de wijk. De twee letters geven de buurt en straat aan" style="text;html=1;align=center;verticalAlign=middle;resizable=0;points=[];autosize=1;strokeColor=none;fillColor=none;" vertex="1" parent="1">
          <mxGeometry y="40" width="850" height="20" as="geometry" />
        </mxCell>
        <mxCell id="9m2IHYcQ7WaVDAypF8id-29" value="Part. Key: postcode" style="text;html=1;align=center;verticalAlign=middle;resizable=0;points=[];autosize=1;strokeColor=none;fillColor=none;" vertex="1" parent="1">
          <mxGeometry x="450" y="139" width="120" height="20" as="geometry" />
        </mxCell>
      </root>
    </mxGraphModel>
  </diagram>
</mxfile>
